<?xml version="1.0" encoding="UTF-8" standalone="no"?>
<!-- Created with Inkscape (http://www.inkscape.org/) -->

<svg
   xmlns:dc="http://purl.org/dc/elements/1.1/"
   xmlns:cc="http://creativecommons.org/ns#"
   xmlns:rdf="http://www.w3.org/1999/02/22-rdf-syntax-ns#"
   xmlns:svg="http://www.w3.org/2000/svg"
   xmlns="http://www.w3.org/2000/svg"
   xmlns:sodipodi="http://sodipodi.sourceforge.net/DTD/sodipodi-0.dtd"
   xmlns:inkscape="http://www.inkscape.org/namespaces/inkscape"
   id="svg2"
   version="1.1"
   inkscape:version="0.91 r13725"
   xml:space="preserve"
   width="920"
   height="680"
   viewBox="0 0 920 679.99998"
   sodipodi:docname="ezlogger.svg"
   inkscape:export-filename="D:\dev\ezlogger.png"
   inkscape:export-xdpi="90"
   inkscape:export-ydpi="90"><metadata
     id="metadata8"><rdf:RDF><cc:Work
         rdf:about=""><dc:format>image/svg+xml</dc:format><dc:type
           rdf:resource="http://purl.org/dc/dcmitype/StillImage" /><dc:title></dc:title></cc:Work></rdf:RDF></metadata><defs
     id="defs6"><clipPath
       clipPathUnits="userSpaceOnUse"
       id="clipPath18"><path
         d="m 0,841.89 595.28,0 L 595.28,0 0,0 0,841.89 Z"
         id="path20"
         inkscape:connector-curvature="0" /></clipPath></defs><sodipodi:namedview
     pagecolor="#1d1d1d"
     bordercolor="#666666"
     borderopacity="1"
     objecttolerance="10"
     gridtolerance="10"
     guidetolerance="10"
     inkscape:pageopacity="1"
     inkscape:pageshadow="2"
     inkscape:window-width="1528"
     inkscape:window-height="861"
     id="namedview4"
     showgrid="false"
     inkscape:zoom="0.44851463"
     inkscape:cx="475.40002"
     inkscape:cy="331.26351"
     inkscape:window-x="0"
     inkscape:window-y="0"
     inkscape:window-maximized="0"
     inkscape:current-layer="g10"
     fit-margin-left="10"
     fit-margin-top="10"
     fit-margin-right="10"
     fit-margin-bottom="10" /><g
     id="g10"
     inkscape:groupmode="layer"
     inkscape:label="ezpaarse-logo2014"
     transform="matrix(1.25,0,0,-1.25,-225.65391,985.3759)"><path
       d="m 273.1178,449.32149 c -13.8967,24.3238 -18.52893,53.27987 -5.79031,78.76181 -11.58517,-28.95609 0,-59.07021 17.37085,-82.236 11.58522,-12.73864 24.32384,-22.00307 40.54129,-27.79336 13.8967,-4.63687 28.95143,-6.95297 44.01543,-5.79491 24.53142,3.34038 46.86675,13.22307 64.00231,31.52129 1.8409,-0.59055 3.76022,-0.99195 5.79491,-0.99195 4.43385,0 8.45705,1.56867 11.69591,4.09704 -4.63223,-6.4316 -9.97959,-13.08467 -15.26237,-18.01217 -9.74892,-8.7431 -20.90501,-15.78836 -33.80053,-20.0884 -2.31611,-1.15345 -4.63222,-2.31609 -6.95294,-3.46959 -45.17353,-15.05936 -96.13266,2.31614 -121.61455,44.00624 m 18.53353,-71.80422 c -4.63683,3.46495 -8.10639,5.78109 -12.74325,8.09718 -4.86754,3.0497 -9.07529,6.4316 -13.00162,10.11342 1.16266,1.83627 1.86396,4.00475 1.86396,6.34392 0,6.56542 -5.32429,11.88511 -11.8897,11.88511 -1.88703,0 -3.6449,-0.47984 -5.22743,-1.25957 -1.78091,2.07619 -3.5572,4.14317 -5.33352,6.51463 -12.98315,18.74577 -20.68815,39.49854 -23.04581,60.58353 4.52149,0.49368 8.58163,2.48219 11.59443,5.56883 2.17773,-23.54873 11.80666,-45.39496 26.81987,-63.41638 0,0 9.78585,-12.01889 20.54978,-20.27754 1.42566,-1.32877 2.94821,-2.47299 4.62301,-3.30807 0.34603,-0.19846 0.70127,-0.3922 1.0473,-0.59058 0.87202,-0.51213 1.73481,-0.99197 2.58835,-1.4164 12.96009,-7.01299 26.47384,-12.7848 40.54586,-16.18976 -0.0417,-0.51674 -0.15676,-1.00582 -0.15676,-1.53177 0,-7.88955 4.78449,-14.65336 11.60367,-17.56927 -17.35238,2.56525 -34.50184,7.24359 -49.83801,16.45272 m -71.01064,140.22652 c -0.14301,0 -0.28145,0.0417 -0.42448,0.0417 -5.69339,0 -10.74546,-2.53757 -14.24273,-6.48695 3.66798,27.26282 15.35466,53.46441 33.55601,74.70166 18.53355,19.68233 41.69471,34.73711 69.49269,40.53203 1.9793,0.42447 3.96325,0.71974 5.94255,1.04729 3.16047,-5.37502 8.82616,-9.03374 15.42384,-9.37519 -15.72376,-0.86276 -30.70928,-4.53072 -45.69023,-12.5218 -13.89665,-8.10176 -25.47726,-16.21277 -35.90438,-27.79336 -12.73862,-15.05936 -22.0077,-32.43025 -26.63995,-52.12643 -0.57672,-2.70369 -1.0704,-5.37044 -1.51332,-8.01878 m 46.6868,41.61164 c -35.90442,-41.69462 -24.32381,-107.71315 18.53354,-141.30142 3.46956,-2.32076 5.7903,-3.47419 8.10181,-5.79491 14.14121,-9.42595 29.23289,-15.18392 44.56909,-17.67079 -3.64027,-2.38993 -6.34394,-6.01175 -7.68197,-10.25177 -10.20103,2.29764 -20.24985,5.89641 -29.93419,11.70979 -10.4271,6.95293 -18.53352,13.90126 -27.79799,22.00768 -37.06244,37.05784 -42.85277,103.07639 -5.79029,141.30147 m 142.45957,10.4226 c -17.37085,26.63991 -49.80108,38.22508 -79.91521,37.06707 -41.69934,-2.31614 -77.60372,-31.28144 -90.34236,-70.65076 -2.35306,-8.2356 -4.09704,-16.46658 -5.10747,-24.85444 -2.71748,3.05432 -6.34854,5.25509 -10.5194,6.07634 3.42343,17.0156 10.45482,33.62056 21.41715,48.88299 17.3755,24.32379 40.54126,39.38316 69.4927,44.02001 37.06709,6.94837 76.44566,-6.95294 94.97459,-40.54121 M 314.8126,444.68951 c 25.48191,-17.37548 57.91213,-18.53354 84.55669,-5.79031 8.2125,4.30467 15.60839,9.55514 22.05849,15.65918 1.59176,-3.82022 4.41999,-6.95757 7.94952,-9.04761 -8.87692,-8.06487 -19.018,-14.54725 -30.00801,-19.3548 -38.22513,-16.20818 -84.55669,-4.6276 -107.71783,31.27218 -15.05934,23.16576 -15.05934,53.28449 0,75.28761 -16.21742,-30.11414 -4.63683,-68.33927 23.16114,-88.02625 m 33.44528,183.75288 c 34.57564,-3.91249 66.11543,-22.76899 84.69507,-54.03194 17.02487,-29.79578 17.38934,-64.45905 1.1719,-94.14874 -8.13866,-2.18691 -14.16426,-9.5459 -14.16426,-18.37204 0,-0.083 0.0218,-0.15676 0.0218,-0.23543 -11.01313,-10.57016 -24.04704,-16.88642 -39.14793,-20.43903 -25.48188,-5.79492 -55.59598,3.47414 -64.8605,27.79803 11.58064,-16.21747 32.42566,-24.32389 52.12187,-23.16581 41.69011,2.31612 70.65076,44.01083 68.33002,83.3894 -2.31614,30.11875 -19.69157,55.60067 -45.16888,72.97611 -16.21738,10.41792 -34.74635,15.05478 -53.27986,16.20818 -1.51793,0 -3.01278,-0.06 -4.5123,-0.10632 6.46852,0.7105 11.9174,4.60454 14.79176,10.12722 m 5.93333,15.46541 c 19.69161,-3.4788 35.90905,-8.11105 53.28451,-19.69161 16.21284,-11.5852 28.95144,-24.31921 39.3786,-41.69932 20.73891,-33.18229 21.00191,-72.85613 5.04283,-106.57361 -3.07279,2.80054 -7.04525,4.57686 -11.4514,4.89983 2.80521,6.03942 4.96446,12.52639 6.40857,19.44246 6.95294,33.58829 -1.15808,67.17656 -23.16576,92.65846 -19.32251,21.95696 -45.97172,34.5664 -74.38795,37.87912 0.71514,2.00235 1.17653,4.12933 1.17653,6.38084 0,2.5745 -0.526,5.02903 -1.45335,7.27131 1.72556,-0.18907 3.43725,-0.31372 5.16742,-0.56748 m 142.11799,-118.168 c -0.0461,0 -0.0967,-0.0109 -0.14781,-0.0109 -0.12925,3.08661 -0.32756,6.18707 -0.65976,9.30139 -0.99193,9.42593 -3.05428,18.64425 -5.99331,27.55807 3.73719,-12.18038 5.69343,-24.54992 6.03023,-36.92404 -6.19631,-0.40601 -11.11461,-5.50886 -11.11461,-11.8113 0,-5.82718 4.19856,-10.6532 9.73508,-11.6682 -3.28501,-22.72284 -12.15731,-45.01202 -26.46001,-65.60332 -12.73402,-18.5289 -27.79338,-31.26757 -46.32694,-40.53663 -17.07556,-9.49051 -34.93551,-13.48605 -53.56591,-14.64415 -0.70134,4.77526 -3.15124,8.9369 -6.70384,11.88051 18.71809,0.78434 37.30241,6.13631 54.47947,15.50229 31.27218,18.52892 53.27525,46.32691 61.39093,82.23134 10.41788,42.85737 -1.16731,83.39401 -27.79801,116.98688 -0.74747,0.90432 -1.53177,1.76711 -2.29766,2.65293 10.42251,0.13842 18.84264,8.60932 18.84264,19.07338 0,10.54706 -8.55393,19.0964 -19.10099,19.0964 -10.54248,0 -19.09645,-8.54934 -19.09645,-19.0964 0,-0.29521 0.074,-0.56751 0.0878,-0.85358 -45.25191,35.15237 -109.9186,40.36596 -160.28262,12.71559 38.22054,19.68698 84.55206,22.0031 125.08869,5.7903 12.93704,-5.32893 24.8406,-12.43414 35.44767,-21.01116 1.44413,-8.13411 8.02339,-14.40882 16.27283,-15.48843 13.50913,-15.17933 23.67787,-33.38989 29.35742,-53.84277 7.87113,-30.3771 5.91028,-60.74499 -9.06606,-88.99513 -0.22136,-0.39679 -2.98972,-5.22742 -7.1606,-11.63596 0.52137,1.744 0.8905,3.56183 0.8905,5.48117 0,4.69681 -1.76248,8.94611 -4.57688,12.27263 8.36016,17.95682 12.12962,37.77761 10.64396,58.55345 -2.31612,32.43023 -18.52891,60.22822 -42.85275,82.23595 -20.79891,17.32932 -46.1424,27.52579 -72.62549,30.10951 -3.00354,6.61153 -9.62893,11.23454 -17.37083,11.23454 -8.18484,0 -15.1101,-5.17207 -17.83224,-12.40646 -25.85561,-4.4246 -50.06413,-15.9775 -70.06022,-32.9285 -1.43025,4.96443 -5.95637,8.61392 -11.37752,8.61392 -6.57006,0 -11.88976,-5.3197 -11.88976,-11.88509 0,-5.32429 3.52036,-9.77659 8.35094,-11.28993 -3.9263,-4.39233 -7.64039,-9.01069 -11.04538,-13.88282 3.52031,4.826 7.32669,9.41207 11.3222,13.79516 1.04274,-0.29524 2.12235,-0.5075 3.262,-0.5075 6.56539,0 11.88967,5.31507 11.88967,11.88509 0,1.0104 -0.16636,1.97471 -0.40141,2.9113 20.00998,16.99716 43.9739,28.77149 69.8618,33.00236 -0.71974,-2.00702 -1.18113,-4.14321 -1.18113,-6.39935 0,-2.97127 0.7336,-5.73955 1.9424,-8.2448 -0.1799,-0.0282 -0.39216,-0.11069 -0.5629,-0.11069 -59.12088,-9.23672 -100.51572,-61.21094 -107.81932,-117.72047 -2.90206,-3.34498 -4.71528,-7.66349 -4.71528,-12.43872 0,-4.17549 1.37953,-8.00955 3.65409,-11.15614 0.0507,-1.18574 0.15218,-2.36227 0.23073,-3.54338 -0.0738,1.14421 -0.0924,2.28843 -0.1382,3.43267 3.37267,-4.5861 8.72001,-7.60352 14.81021,-7.77886 0.06,-0.4521 0.0923,-0.90428 0.16156,-1.36565 4.47075,-25.04821 14.53337,-47.29581 29.52818,-66.28152 -3.22969,-2.12233 -5.37044,-5.77184 -5.37044,-9.92422 0,-6.56542 5.31968,-11.88512 11.88507,-11.88512 3.84327,0 7.22978,1.85016 9.39826,4.67839 16.96487,-14.40882 35.07395,-24.45768 56.48187,-30.09105 5.79491,-1.16266 10.42714,-2.31614 15.05936,-3.47417 1.90088,-0.26298 3.80638,-0.37834 5.70726,-0.57213 2.02543,-0.72898 4.18006,-1.19956 6.45928,-1.19956 1.12114,0 2.20077,0.143 3.27117,0.32758 8.34632,-0.58136 16.54498,-0.2492 24.64216,0.77048 -7.98182,-0.83048 -16.02365,-1.04271 -24.08853,-0.71053 8.31401,1.68866 14.58416,8.80311 15.15166,17.48163 17.62924,1.31028 34.92629,5.93329 51.09295,14.01202 3.47417,2.32075 6.94836,3.47878 10.42253,5.79492 36.85021,24.87284 60.44968,62.95496 65.6725,104.88497 0.38754,-0.0367 0.76588,-0.11986 1.15804,-0.11986 6.56539,0 11.89432,5.31507 11.89432,11.88506 0,6.5654 -5.32893,11.88512 -11.89432,11.88512 m -22.81511,70.67841 c 2.6483,-4.24467 5.12129,-8.60468 7.38203,-13.07546 -0.16156,0.4845 -0.30898,0.98277 -0.43369,1.4949 -2.31613,4.63222 -4.63685,8.10639 -6.94834,11.58056 m 11.55747,-22.04001 c 1.65176,-3.8571 3.14203,-7.79727 4.45693,-11.7882 -0.97348,3.1789 -2.06235,6.35318 -3.27117,9.50437 -0.40137,0.79356 -0.79357,1.55024 -1.18576,2.28383 M 376.89884,360.62541 c 11.9174,1.24574 23.68252,3.78328 35.20311,7.61734 -11.66362,-3.23425 -23.33186,-6.11324 -35.20311,-7.61734 m 108.15151,213.75166 c -1.30106,3.03588 -2.69441,6.01638 -4.17544,8.96456 1.00121,-3.16965 2.53293,-5.86871 4.17544,-8.96456"
       style="fill:#ffffff;fill-opacity:0.16574587;fill-rule:nonzero;stroke:none"
       id="path256"
       inkscape:connector-curvature="0" /><g
       id="g5678"
       transform="matrix(3.8026997,0,0,3.8026997,-434.76126,-589.35278)"><path
         inkscape:connector-curvature="0"
         id="path260"
         style="fill:#ffffff;fill-opacity:1;fill-rule:nonzero;stroke:none"
         d="m 199.39813,299.91456 c -2.458,0 -4.638,-0.951 -6.539,-2.853 -1.901,-1.901 -2.852,-4.088 -2.852,-6.562 0,-2.474 0.819,-4.638 2.458,-6.492 l 13.495,13.402 c -1.917,1.669 -4.104,2.505 -6.562,2.505 m 0.487,-20.592 -0.418,0 c -2.937,0 -5.495,1.106 -7.674,3.317 -2.18,2.21 -3.27,4.783 -3.27,7.721 0,2.937 1.082,5.48 3.246,7.628 2.164,2.149 4.838,3.224 8.023,3.224 3.184,0 5.92,-1.269 8.209,-3.803 l -14.562,-14.376 c 2.009,-1.608 3.941,-2.412 5.796,-2.412 1.856,0 3.517,0.425 4.986,1.275 1.468,0.85 2.682,1.987 3.64,3.409 l 0,-2.366 c -2.195,-2.41 -4.854,-3.617 -7.976,-3.617" /><path
         inkscape:connector-curvature="0"
         id="path264"
         style="fill:#ffffff;fill-opacity:1;fill-rule:nonzero;stroke:none"
         d="m 225.15933,281.17826 0,-1.299 -14.376,0 11.872,19.57 -10.62,0 0,1.299 13.263,0 -11.918,-19.57 11.779,0 z" /><path
         inkscape:connector-curvature="0"
         id="path268"
         style="fill:#ffffff;fill-opacity:1;fill-rule:nonzero;stroke:none"
         d="m 241.42104,294.10206 c 0.041,0.227 0.056,0.51 0.046,0.85 -0.01,0.339 -0.046,0.623 -0.108,0.849 -0.124,0.453 -0.278,0.815 -0.464,1.083 -0.185,0.268 -0.464,0.515 -0.834,0.741 -0.31,0.186 -0.691,0.326 -1.144,0.418 -0.454,0.093 -0.943,0.15 -1.469,0.17 -0.526,0.021 -1.067,0.026 -1.623,0.016 -0.557,-0.011 -1.082,-0.016 -1.577,-0.016 -0.062,-0.02 -0.119,-0.036 -0.17,-0.047 -0.052,-0.009 -0.108,-0.014 -0.17,-0.014 -0.206,-0.083 -0.34,-0.206 -0.402,-0.371 -0.083,-0.165 -0.124,-0.387 -0.124,-0.665 l 0,-0.758 0,-2.937 0,-0.819 c 0,-0.299 0.052,-0.531 0.155,-0.695 0.082,-0.124 0.206,-0.217 0.371,-0.279 0.165,-0.061 0.35,-0.098 0.556,-0.108 0.207,-0.011 0.428,-0.011 0.665,0 0.237,0.01 0.459,0.016 0.665,0.016 1.092,0 2.092,0.05 2.999,0.154 0.907,0.103 1.597,0.464 2.071,1.082 0.124,0.185 0.227,0.387 0.309,0.603 0.082,0.216 0.165,0.458 0.248,0.727 m 3.4,5.07 c 0.475,-0.66 0.82,-1.391 1.037,-2.195 0.216,-0.805 0.293,-1.773 0.231,-2.906 -0.042,-0.453 -0.113,-0.871 -0.216,-1.252 -0.103,-0.382 -0.227,-0.738 -0.371,-1.067 -0.042,-0.083 -0.078,-0.16 -0.108,-0.232 -0.031,-0.072 -0.068,-0.15 -0.109,-0.232 -0.082,-0.145 -0.159,-0.284 -0.232,-0.417 -0.072,-0.134 -0.159,-0.263 -0.262,-0.386 -0.413,-0.578 -0.912,-1.047 -1.5,-1.407 -0.587,-0.361 -1.252,-0.665 -1.994,-0.913 -0.227,-0.083 -0.463,-0.133 -0.711,-0.155 -0.248,-0.019 -0.495,-0.06 -0.742,-0.123 -0.124,-0.02 -0.247,-0.031 -0.371,-0.031 -0.124,0 -0.247,-0.01 -0.371,-0.03 l -1.267,0 -2.598,0 -0.85,0 c -0.299,0 -0.53,-0.062 -0.695,-0.186 -0.207,-0.144 -0.31,-0.397 -0.31,-0.758 l 0,-1.066 0,-4.081 c 0,-0.247 0.005,-0.516 0.016,-0.804 0.01,-0.289 -0.036,-0.516 -0.139,-0.681 -0.083,-0.144 -0.268,-0.257 -0.557,-0.339 -0.144,-0.041 -0.299,-0.051 -0.464,-0.032 -0.165,0.022 -0.329,0.032 -0.494,0.032 l -1.793,0 c -0.227,0 -0.438,0.004 -0.634,0.015 -0.196,0.01 -0.355,0.067 -0.479,0.17 -0.124,0.104 -0.196,0.263 -0.217,0.48 -0.02,0.215 -0.031,0.437 -0.031,0.665 l 0,18.488 c 0,0.287 -0.005,0.628 -0.015,1.019 -0.011,0.392 0.035,0.67 0.139,0.835 0.082,0.124 0.237,0.227 0.464,0.31 0.041,0.02 0.087,0.025 0.139,0.016 0.051,-0.012 0.098,-0.006 0.139,0.014 l 8.935,0 c 0.185,0 0.371,0.005 0.556,0.016 0.186,0.011 0.361,-0.005 0.526,-0.046 l 0.155,0 c 0.103,-0.042 0.216,-0.062 0.34,-0.062 0.123,0 0.236,-0.021 0.34,-0.062 0.103,-0.021 0.196,-0.031 0.278,-0.031 0.082,0 0.175,-0.021 0.278,-0.062 0.33,-0.103 0.66,-0.201 0.99,-0.294 0.329,-0.092 0.638,-0.221 0.927,-0.385 0.103,-0.083 0.217,-0.156 0.34,-0.217 0.124,-0.063 0.248,-0.145 0.371,-0.248 0.103,-0.062 0.191,-0.129 0.263,-0.201 0.072,-0.073 0.16,-0.149 0.263,-0.231 l 0.185,-0.185 c 0.248,-0.249 0.453,-0.496 0.618,-0.743" /><path
         inkscape:connector-curvature="0"
         id="path272"
         style="fill:#ffffff;fill-opacity:1;fill-rule:nonzero;stroke:none"
         d="m 257.58993,288.44386 c 0.268,0.104 0.392,0.278 0.371,0.525 -0.02,0.248 -0.082,0.485 -0.185,0.711 -0.042,0.082 -0.062,0.16 -0.062,0.233 0,0.072 -0.021,0.148 -0.062,0.231 -0.268,0.7 -0.516,1.411 -0.742,2.134 -0.227,0.721 -0.485,1.441 -0.773,2.164 -0.042,0.103 -0.083,0.231 -0.124,0.387 -0.041,0.154 -0.092,0.298 -0.154,0.431 -0.062,0.135 -0.134,0.253 -0.217,0.357 -0.082,0.102 -0.185,0.154 -0.309,0.154 -0.041,-0.042 -0.082,-0.072 -0.123,-0.093 -0.042,-0.02 -0.083,-0.051 -0.124,-0.092 -0.165,-0.206 -0.284,-0.454 -0.355,-0.742 -0.073,-0.289 -0.161,-0.568 -0.264,-0.836 -0.247,-0.576 -0.468,-1.164 -0.664,-1.761 -0.196,-0.598 -0.407,-1.196 -0.634,-1.793 -0.082,-0.207 -0.155,-0.407 -0.216,-0.604 -0.062,-0.195 -0.124,-0.406 -0.186,-0.633 -0.062,-0.166 -0.052,-0.351 0.031,-0.556 0.103,-0.145 0.273,-0.228 0.51,-0.248 0.237,-0.021 0.479,-0.032 0.727,-0.032 l 2.349,0 0.619,0 c 0.226,0 0.422,0.022 0.587,0.063 m 8.008,-7.08 c 0.02,-0.082 0.056,-0.186 0.108,-0.309 0.051,-0.124 0.092,-0.253 0.123,-0.386 0.032,-0.135 0.036,-0.264 0.016,-0.387 -0.021,-0.123 -0.093,-0.217 -0.216,-0.278 -0.165,-0.103 -0.438,-0.144 -0.82,-0.124 -0.382,0.021 -0.696,0.031 -0.943,0.031 l -1.453,0 c -0.165,0 -0.314,-0.006 -0.448,-0.016 -0.134,-0.01 -0.263,0.006 -0.387,0.047 -0.227,0.062 -0.391,0.186 -0.494,0.371 -0.103,0.164 -0.181,0.34 -0.232,0.526 -0.052,0.185 -0.119,0.371 -0.201,0.556 -0.103,0.329 -0.212,0.659 -0.325,0.989 -0.113,0.33 -0.232,0.65 -0.355,0.958 -0.062,0.186 -0.119,0.356 -0.17,0.51 -0.052,0.155 -0.108,0.295 -0.17,0.418 -0.062,0.123 -0.155,0.233 -0.279,0.324 -0.123,0.094 -0.288,0.161 -0.494,0.202 -0.103,0 -0.201,0.004 -0.294,0.015 -0.093,0.01 -0.191,0.016 -0.294,0.016 l -4.885,0 c -0.35,0 -0.726,0.005 -1.128,0.015 -0.402,0.01 -0.716,-0.067 -0.943,-0.232 -0.165,-0.123 -0.278,-0.289 -0.34,-0.494 -0.062,-0.207 -0.134,-0.412 -0.217,-0.619 -0.165,-0.35 -0.304,-0.716 -0.417,-1.098 -0.113,-0.381 -0.242,-0.757 -0.386,-1.128 -0.083,-0.206 -0.16,-0.423 -0.232,-0.649 -0.072,-0.227 -0.191,-0.403 -0.356,-0.526 -0.103,-0.082 -0.252,-0.138 -0.448,-0.17 -0.196,-0.031 -0.412,-0.046 -0.649,-0.046 -0.238,0 -0.479,0.005 -0.727,0.015 -0.247,0.01 -0.464,0.016 -0.649,0.016 -0.268,0 -0.593,-0.006 -0.974,-0.016 -0.381,-0.01 -0.654,0.036 -0.819,0.14 -0.104,0.061 -0.16,0.154 -0.17,0.278 -0.011,0.123 0,0.252 0.031,0.387 0.031,0.133 0.066,0.262 0.108,0.386 0.041,0.124 0.082,0.226 0.124,0.309 0.206,0.474 0.396,0.958 0.571,1.453 0.176,0.494 0.356,0.979 0.542,1.453 0.082,0.164 0.143,0.33 0.185,0.495 0.041,0.165 0.103,0.33 0.185,0.495 0.165,0.432 0.33,0.876 0.495,1.329 0.165,0.453 0.33,0.896 0.495,1.33 0.165,0.412 0.319,0.818 0.464,1.221 0.144,0.402 0.298,0.808 0.463,1.22 0.475,1.134 0.913,2.278 1.314,3.432 0.402,1.154 0.84,2.299 1.314,3.432 0.041,0.103 0.072,0.196 0.093,0.279 0.021,0.082 0.051,0.174 0.093,0.277 0.164,0.434 0.329,0.877 0.495,1.33 0.164,0.453 0.339,0.897 0.525,1.329 0.103,0.227 0.19,0.458 0.263,0.697 0.072,0.236 0.201,0.427 0.386,0.571 0.103,0.061 0.237,0.113 0.402,0.155 0.041,0.02 0.082,0.026 0.124,0.016 0.041,-0.012 0.082,-0.006 0.124,0.014 l 2.72,0 c 0.227,0 0.459,0.005 0.696,0.016 0.237,0.011 0.427,-0.036 0.572,-0.14 0.227,-0.123 0.376,-0.303 0.448,-0.541 0.072,-0.236 0.159,-0.478 0.263,-0.726 0.144,-0.35 0.278,-0.695 0.402,-1.035 0.123,-0.34 0.257,-0.686 0.402,-1.035 0.041,-0.125 0.082,-0.248 0.123,-0.372 0.042,-0.124 0.083,-0.248 0.124,-0.371 0.165,-0.413 0.32,-0.82 0.464,-1.221 0.144,-0.402 0.298,-0.81 0.463,-1.222 0.413,-1.03 0.799,-2.07 1.16,-3.122 0.36,-1.052 0.757,-2.093 1.19,-3.122 0.041,-0.083 0.067,-0.16 0.078,-0.233 0.009,-0.072 0.035,-0.15 0.077,-0.232 0.123,-0.33 0.247,-0.659 0.371,-0.988 0.124,-0.33 0.247,-0.66 0.371,-0.99 0.082,-0.165 0.144,-0.325 0.185,-0.479 0.042,-0.154 0.093,-0.314 0.155,-0.479 0.267,-0.66 0.515,-1.32 0.742,-1.979 0.227,-0.66 0.474,-1.31 0.742,-1.948 0.041,-0.062 0.062,-0.119 0.062,-0.17 0,-0.051 0.02,-0.108 0.062,-0.17" /><path
         inkscape:connector-curvature="0"
         id="path276"
         style="fill:#ffffff;fill-opacity:1;fill-rule:nonzero;stroke:none"
         d="m 278.76773,288.44386 c 0.268,0.104 0.392,0.278 0.371,0.525 -0.02,0.248 -0.083,0.485 -0.185,0.711 -0.042,0.082 -0.062,0.16 -0.062,0.233 0,0.072 -0.021,0.148 -0.062,0.231 -0.268,0.7 -0.516,1.411 -0.743,2.134 -0.226,0.721 -0.484,1.441 -0.772,2.164 -0.042,0.103 -0.083,0.231 -0.124,0.387 -0.041,0.154 -0.092,0.298 -0.154,0.431 -0.062,0.135 -0.134,0.253 -0.217,0.357 -0.082,0.102 -0.185,0.154 -0.309,0.154 -0.041,-0.042 -0.082,-0.072 -0.123,-0.093 -0.042,-0.02 -0.083,-0.051 -0.124,-0.092 -0.165,-0.206 -0.284,-0.454 -0.355,-0.742 -0.073,-0.289 -0.161,-0.568 -0.264,-0.836 -0.247,-0.576 -0.468,-1.164 -0.664,-1.761 -0.196,-0.598 -0.407,-1.196 -0.634,-1.793 -0.082,-0.207 -0.155,-0.407 -0.216,-0.604 -0.062,-0.195 -0.124,-0.406 -0.186,-0.633 -0.062,-0.166 -0.052,-0.351 0.031,-0.556 0.103,-0.145 0.273,-0.228 0.51,-0.248 0.237,-0.021 0.479,-0.032 0.727,-0.032 l 2.349,0 0.619,0 c 0.227,0 0.422,0.022 0.587,0.063 m 8.008,-7.08 c 0.02,-0.082 0.055,-0.186 0.108,-0.309 0.051,-0.124 0.092,-0.253 0.123,-0.386 0.032,-0.135 0.036,-0.264 0.016,-0.387 -0.021,-0.123 -0.093,-0.217 -0.217,-0.278 -0.164,-0.103 -0.437,-0.144 -0.818,-0.124 -0.383,0.021 -0.697,0.031 -0.944,0.031 l -1.453,0 c -0.165,0 -0.314,-0.006 -0.448,-0.016 -0.134,-0.01 -0.263,0.006 -0.387,0.047 -0.227,0.062 -0.391,0.186 -0.495,0.371 -0.102,0.164 -0.18,0.34 -0.231,0.526 -0.052,0.185 -0.118,0.371 -0.2,0.556 -0.104,0.329 -0.213,0.659 -0.326,0.989 -0.114,0.33 -0.231,0.65 -0.355,0.958 -0.062,0.186 -0.119,0.356 -0.17,0.51 -0.052,0.155 -0.108,0.295 -0.171,0.418 -0.061,0.123 -0.154,0.233 -0.277,0.324 -0.124,0.094 -0.289,0.161 -0.495,0.202 -0.103,0 -0.201,0.004 -0.294,0.015 -0.092,0.01 -0.191,0.016 -0.293,0.016 l -4.886,0 c -0.35,0 -0.726,0.005 -1.128,0.015 -0.402,0.01 -0.716,-0.067 -0.943,-0.232 -0.165,-0.123 -0.278,-0.289 -0.34,-0.494 -0.062,-0.207 -0.134,-0.412 -0.217,-0.619 -0.165,-0.35 -0.304,-0.716 -0.417,-1.098 -0.113,-0.381 -0.242,-0.757 -0.386,-1.128 -0.083,-0.206 -0.16,-0.423 -0.232,-0.649 -0.072,-0.227 -0.191,-0.403 -0.356,-0.526 -0.103,-0.082 -0.252,-0.138 -0.448,-0.17 -0.196,-0.031 -0.412,-0.046 -0.649,-0.046 -0.238,0 -0.479,0.005 -0.727,0.015 -0.247,0.01 -0.464,0.016 -0.649,0.016 -0.268,0 -0.593,-0.006 -0.974,-0.016 -0.381,-0.01 -0.654,0.036 -0.819,0.14 -0.104,0.061 -0.16,0.154 -0.17,0.278 -0.011,0.123 0,0.252 0.031,0.387 0.031,0.133 0.066,0.262 0.108,0.386 0.041,0.124 0.082,0.226 0.124,0.309 0.206,0.474 0.396,0.958 0.571,1.453 0.176,0.494 0.356,0.979 0.542,1.453 0.082,0.164 0.143,0.33 0.185,0.495 0.041,0.165 0.103,0.33 0.185,0.495 0.165,0.432 0.33,0.876 0.495,1.329 0.165,0.453 0.33,0.896 0.495,1.33 0.165,0.412 0.319,0.818 0.464,1.221 0.144,0.402 0.298,0.808 0.463,1.22 0.475,1.134 0.913,2.278 1.314,3.432 0.402,1.154 0.84,2.299 1.314,3.432 0.041,0.103 0.072,0.196 0.093,0.279 0.021,0.082 0.051,0.174 0.093,0.277 0.164,0.434 0.329,0.877 0.495,1.33 0.164,0.453 0.339,0.897 0.525,1.329 0.103,0.227 0.19,0.458 0.263,0.697 0.072,0.236 0.201,0.427 0.386,0.571 0.103,0.061 0.237,0.113 0.402,0.155 0.041,0.02 0.082,0.026 0.124,0.016 0.041,-0.012 0.082,-0.006 0.124,0.014 l 2.72,0 c 0.227,0 0.459,0.005 0.696,0.016 0.236,0.011 0.427,-0.036 0.572,-0.14 0.227,-0.123 0.375,-0.303 0.448,-0.541 0.072,-0.236 0.159,-0.478 0.263,-0.726 0.144,-0.35 0.278,-0.695 0.402,-1.035 0.123,-0.34 0.257,-0.686 0.402,-1.035 0.041,-0.125 0.082,-0.248 0.124,-0.372 0.041,-0.124 0.082,-0.248 0.123,-0.371 0.165,-0.413 0.32,-0.82 0.464,-1.221 0.143,-0.402 0.298,-0.81 0.463,-1.222 0.413,-1.03 0.799,-2.07 1.161,-3.122 0.359,-1.052 0.756,-2.093 1.189,-3.122 0.041,-0.083 0.066,-0.16 0.078,-0.233 0.01,-0.072 0.035,-0.15 0.076,-0.232 0.124,-0.33 0.248,-0.659 0.371,-0.988 0.125,-0.33 0.249,-0.66 0.372,-0.99 0.082,-0.165 0.144,-0.325 0.185,-0.479 0.041,-0.154 0.093,-0.314 0.154,-0.479 0.268,-0.66 0.516,-1.32 0.743,-1.979 0.226,-0.66 0.474,-1.31 0.742,-1.948 0.041,-0.062 0.062,-0.119 0.062,-0.17 0,-0.051 0.02,-0.108 0.062,-0.17" /><path
         inkscape:connector-curvature="0"
         id="path280"
         style="fill:#ffffff;fill-opacity:1;fill-rule:nonzero;stroke:none"
         d="m 302.75893,294.53365 c 0.041,0.227 0.047,0.506 0.016,0.836 -0.032,0.329 -0.068,0.576 -0.109,0.742 -0.042,0.082 -0.061,0.154 -0.061,0.216 0,0.061 -0.022,0.124 -0.063,0.185 -0.247,0.639 -0.7,1.103 -1.359,1.392 -0.352,0.164 -0.753,0.257 -1.206,0.277 -0.454,0.021 -0.928,0.032 -1.423,0.032 l -3.586,0 c -0.041,-0.041 -0.082,-0.057 -0.123,-0.047 -0.042,0.011 -0.083,0.015 -0.124,0.015 -0.247,-0.061 -0.413,-0.164 -0.495,-0.308 -0.104,-0.166 -0.15,-0.377 -0.139,-0.634 0.01,-0.259 0.016,-0.511 0.016,-0.758 l 0,-2.875 0,-0.742 c 0,-0.247 0.051,-0.443 0.154,-0.587 0.082,-0.124 0.217,-0.207 0.402,-0.248 0.186,-0.041 0.391,-0.072 0.618,-0.092 0.226,-0.021 0.464,-0.027 0.711,-0.015 0.248,0.009 0.464,0.015 0.65,0.015 l 1.824,0 c 0.144,0 0.299,-0.006 0.463,-0.015 0.165,-0.012 0.31,0.004 0.434,0.046 l 0.401,0 c 0.165,0.041 0.325,0.061 0.479,0.061 0.155,0 0.304,0.021 0.449,0.063 0.35,0.102 0.659,0.236 0.927,0.401 0.268,0.165 0.496,0.382 0.68,0.649 0.124,0.186 0.217,0.391 0.278,0.619 0.063,0.226 0.124,0.484 0.186,0.772 m 5.102,-13.943 c 0.041,-0.123 0.035,-0.237 -0.016,-0.34 -0.052,-0.104 -0.108,-0.175 -0.17,-0.216 -0.124,-0.104 -0.294,-0.149 -0.51,-0.14 -0.217,0.01 -0.438,0.016 -0.665,0.016 l -1.7,0 c -0.33,0 -0.619,0.016 -0.866,0.047 -0.247,0.031 -0.433,0.148 -0.556,0.355 -0.166,0.268 -0.259,0.598 -0.279,0.99 -0.021,0.391 -0.072,0.762 -0.154,1.112 0,0.082 -0.006,0.16 -0.016,0.232 -0.01,0.073 -0.016,0.139 -0.016,0.201 -0.061,0.248 -0.091,0.51 -0.091,0.789 0,0.278 -0.022,0.53 -0.063,0.756 -0.021,0.063 -0.031,0.156 -0.031,0.28 -0.041,0.226 -0.076,0.458 -0.108,0.695 -0.031,0.236 -0.078,0.469 -0.139,0.695 -0.165,0.475 -0.361,0.897 -0.587,1.268 -0.228,0.371 -0.547,0.649 -0.959,0.835 -0.104,0.041 -0.206,0.071 -0.309,0.093 -0.103,0.02 -0.217,0.05 -0.34,0.092 -0.371,0.124 -0.798,0.186 -1.283,0.186 l -1.437,0 -2.536,0 c -0.166,-0.042 -0.309,-0.073 -0.433,-0.093 -0.123,-0.021 -0.227,-0.082 -0.309,-0.185 -0.166,-0.206 -0.237,-0.526 -0.217,-0.959 0.021,-0.432 0.032,-0.825 0.032,-1.174 l 0,-3.958 c 0,-0.165 -0.006,-0.335 -0.016,-0.51 -0.011,-0.175 -0.016,-0.346 -0.016,-0.511 l 0,-0.447 c 0,-0.135 -0.02,-0.254 -0.062,-0.355 -0.061,-0.186 -0.185,-0.31 -0.37,-0.372 -0.104,-0.042 -0.228,-0.062 -0.371,-0.062 l -0.464,0 -1.391,0 c -0.33,0 -0.68,-0.006 -1.051,-0.016 -0.372,-0.009 -0.65,0.057 -0.835,0.201 -0.165,0.104 -0.247,0.294 -0.247,0.573 l 0,0.819 0,18.797 c 0,0.227 -0.005,0.464 -0.016,0.712 -0.011,0.246 0.036,0.442 0.14,0.587 0.082,0.124 0.236,0.226 0.462,0.309 0.041,0.02 0.088,0.026 0.14,0.016 0.052,-0.012 0.098,-0.006 0.14,0.015 l 10.511,0 c 0.329,0 0.643,-0.005 0.943,-0.015 0.298,-0.012 0.582,-0.047 0.85,-0.109 0.103,-0.041 0.211,-0.062 0.325,-0.062 0.113,0 0.22,-0.02 0.324,-0.061 0.144,-0.041 0.289,-0.082 0.433,-0.124 0.144,-0.042 0.289,-0.093 0.433,-0.155 0.515,-0.227 0.989,-0.505 1.422,-0.835 0.433,-0.33 0.794,-0.711 1.082,-1.143 0.083,-0.104 0.149,-0.212 0.201,-0.325 0.052,-0.114 0.118,-0.221 0.2,-0.325 0.166,-0.289 0.289,-0.588 0.371,-0.896 0.082,-0.309 0.176,-0.65 0.28,-1.021 0.019,-0.083 0.025,-0.165 0.015,-0.247 -0.011,-0.083 0.004,-0.166 0.046,-0.248 l 0,-0.277 c 0.041,-0.166 0.052,-0.367 0.031,-0.604 -0.02,-0.236 -0.051,-0.427 -0.092,-0.572 -0.042,-0.164 -0.063,-0.314 -0.063,-0.447 0,-0.135 -0.02,-0.274 -0.061,-0.418 -0.104,-0.309 -0.206,-0.603 -0.31,-0.881 -0.103,-0.278 -0.236,-0.541 -0.401,-0.789 -0.042,-0.061 -0.093,-0.129 -0.156,-0.2 -0.061,-0.074 -0.113,-0.14 -0.154,-0.201 -0.061,-0.083 -0.129,-0.165 -0.201,-0.248 -0.072,-0.083 -0.149,-0.154 -0.231,-0.216 -0.124,-0.104 -0.247,-0.206 -0.372,-0.309 -0.124,-0.103 -0.257,-0.207 -0.401,-0.309 -0.083,-0.062 -0.166,-0.129 -0.248,-0.202 -0.082,-0.072 -0.144,-0.159 -0.185,-0.262 -0.041,-0.123 -0.021,-0.227 0.062,-0.309 0.082,-0.083 0.154,-0.144 0.216,-0.185 0.206,-0.166 0.412,-0.331 0.618,-0.496 0.206,-0.165 0.381,-0.36 0.525,-0.587 0.248,-0.351 0.444,-0.71 0.588,-1.082 0.145,-0.371 0.279,-0.794 0.403,-1.267 0.041,-0.186 0.066,-0.383 0.077,-0.588 0.01,-0.207 0.036,-0.402 0.077,-0.588 0,-0.123 0.005,-0.242 0.016,-0.355 0.009,-0.114 0.015,-0.232 0.015,-0.356 0.02,-0.082 0.026,-0.17 0.016,-0.263 -0.012,-0.092 -0.006,-0.19 0.015,-0.293 0.02,-0.083 0.026,-0.166 0.015,-0.248 -0.011,-0.083 -0.005,-0.174 0.016,-0.278 0.041,-0.206 0.061,-0.422 0.061,-0.648 0,-0.228 0.021,-0.444 0.063,-0.651 l 0.092,-0.556 c 0.041,-0.185 0.082,-0.37 0.124,-0.556 0.041,-0.186 0.083,-0.36 0.124,-0.526" /><path
         inkscape:connector-curvature="0"
         id="path284"
         style="fill:#ffffff;fill-opacity:1;fill-rule:nonzero;stroke:none"
         d="m 318.86633,302.38716 c 3.998,0.063 6.75,-1.123 8.254,-3.555 0.207,-0.33 0.366,-0.671 0.48,-1.021 0.113,-0.35 0.221,-0.732 0.325,-1.144 0.041,-0.165 0.056,-0.355 0.045,-0.571 -0.01,-0.217 -0.056,-0.377 -0.139,-0.48 -0.103,-0.124 -0.246,-0.201 -0.432,-0.231 -0.185,-0.031 -0.392,-0.047 -0.619,-0.047 l -1.947,0 -0.557,0 c -0.185,0 -0.34,0.02 -0.464,0.062 -0.247,0.102 -0.401,0.267 -0.464,0.495 -0.061,0.226 -0.144,0.453 -0.247,0.679 -0.083,0.207 -0.196,0.422 -0.34,0.65 -0.144,0.226 -0.299,0.401 -0.463,0.525 -0.289,0.206 -0.568,0.382 -0.835,0.527 -0.247,0.102 -0.552,0.189 -0.912,0.261 -0.361,0.073 -0.732,0.12 -1.113,0.14 -0.383,0.021 -0.758,0.011 -1.129,-0.03 -0.371,-0.042 -0.701,-0.125 -0.989,-0.248 -0.475,-0.206 -0.841,-0.449 -1.098,-0.727 -0.257,-0.278 -0.438,-0.695 -0.541,-1.252 -0.042,-0.144 -0.051,-0.304 -0.031,-0.479 0.021,-0.175 0.052,-0.315 0.093,-0.417 0.165,-0.434 0.396,-0.738 0.695,-0.912 0.299,-0.176 0.655,-0.346 1.068,-0.51 0.225,-0.104 0.458,-0.182 0.695,-0.233 0.237,-0.051 0.479,-0.119 0.727,-0.201 0.556,-0.185 1.127,-0.345 1.715,-0.478 0.588,-0.135 1.17,-0.284 1.747,-0.449 0.103,-0.042 0.206,-0.062 0.31,-0.062 0.103,0 0.205,-0.021 0.309,-0.062 0.412,-0.144 0.839,-0.278 1.283,-0.402 0.443,-0.123 0.84,-0.299 1.189,-0.525 0.557,-0.351 1.037,-0.701 1.439,-1.051 0.401,-0.352 0.777,-0.805 1.128,-1.361 0.103,-0.164 0.191,-0.35 0.263,-0.556 0.072,-0.206 0.149,-0.413 0.232,-0.618 0.02,-0.063 0.03,-0.119 0.03,-0.17 0,-0.053 0.011,-0.099 0.031,-0.14 0.082,-0.329 0.124,-0.741 0.124,-1.236 0.041,-0.104 0.041,-0.206 0,-0.31 l 0,-0.556 c -0.042,-0.227 -0.077,-0.444 -0.108,-0.649 -0.031,-0.207 -0.077,-0.413 -0.139,-0.619 -0.124,-0.371 -0.258,-0.711 -0.402,-1.019 -0.145,-0.31 -0.32,-0.609 -0.525,-0.897 -0.084,-0.103 -0.167,-0.191 -0.249,-0.264 -0.082,-0.072 -0.154,-0.16 -0.215,-0.261 -0.104,-0.125 -0.216,-0.243 -0.341,-0.357 -0.123,-0.113 -0.258,-0.221 -0.402,-0.324 -0.102,-0.083 -0.211,-0.165 -0.325,-0.247 -0.113,-0.083 -0.23,-0.166 -0.355,-0.248 -0.35,-0.227 -0.716,-0.412 -1.097,-0.557 -0.382,-0.144 -0.778,-0.289 -1.19,-0.432 -0.289,-0.103 -0.588,-0.17 -0.897,-0.201 -0.309,-0.031 -0.619,-0.078 -0.928,-0.139 -0.144,-0.041 -0.283,-0.057 -0.418,-0.046 -0.133,0.01 -0.261,-0.006 -0.385,-0.047 l -0.247,0 c -0.042,0 -0.099,0.006 -0.17,0.016 -0.073,0.009 -0.129,0.005 -0.17,-0.016 -0.104,-0.02 -0.279,-0.031 -0.527,-0.031 -0.247,0 -0.422,0.011 -0.525,0.031 l -0.31,0 c -0.144,0.041 -0.292,0.057 -0.447,0.047 -0.155,-0.011 -0.295,0.005 -0.418,0.046 -0.103,0 -0.196,0.005 -0.278,0.015 -0.083,0.011 -0.175,0.027 -0.278,0.046 -0.247,0.063 -0.506,0.114 -0.774,0.155 -0.267,0.042 -0.514,0.103 -0.741,0.185 -1.011,0.33 -1.897,0.748 -2.659,1.252 -0.763,0.506 -1.403,1.17 -1.916,1.994 -0.33,0.495 -0.588,1.082 -0.774,1.763 -0.041,0.124 -0.067,0.247 -0.078,0.371 -0.01,0.124 -0.035,0.258 -0.076,0.401 -0.042,0.166 -0.072,0.367 -0.094,0.604 -0.019,0.236 0.022,0.418 0.125,0.541 0.102,0.164 0.252,0.263 0.448,0.294 0.195,0.03 0.418,0.046 0.665,0.046 l 1.948,0 0.525,0 c 0.186,0 0.35,-0.031 0.494,-0.092 0.227,-0.104 0.361,-0.273 0.403,-0.511 0.041,-0.237 0.113,-0.479 0.217,-0.726 0.082,-0.247 0.185,-0.475 0.308,-0.681 0.123,-0.206 0.258,-0.401 0.402,-0.587 0.103,-0.124 0.216,-0.237 0.34,-0.341 0.123,-0.102 0.247,-0.195 0.371,-0.277 0.454,-0.289 1.01,-0.525 1.669,-0.711 0.144,-0.042 0.284,-0.062 0.417,-0.062 0.135,0 0.284,-0.021 0.45,-0.062 l 0.154,0 c 0.164,-0.042 0.39,-0.062 0.68,-0.062 0.289,0 0.515,0.02 0.68,0.062 0.062,0.021 0.165,0.03 0.31,0.03 0.102,0.022 0.211,0.037 0.324,0.047 0.113,0.01 0.221,0.036 0.324,0.078 0.701,0.185 1.258,0.432 1.67,0.741 0.412,0.31 0.7,0.825 0.865,1.546 0.041,0.145 0.047,0.309 0.016,0.495 -0.031,0.185 -0.066,0.33 -0.107,0.433 -0.207,0.557 -0.557,0.989 -1.052,1.299 -0.062,0.041 -0.175,0.102 -0.34,0.185 -0.31,0.186 -0.655,0.334 -1.036,0.448 -0.381,0.113 -0.758,0.232 -1.129,0.355 -0.144,0.041 -0.283,0.078 -0.416,0.11 -0.135,0.03 -0.284,0.066 -0.449,0.107 -0.33,0.104 -0.664,0.19 -1.004,0.263 -0.341,0.072 -0.666,0.159 -0.975,0.262 -0.103,0.041 -0.185,0.063 -0.247,0.063 -0.061,0 -0.134,0.019 -0.217,0.061 -0.165,0.041 -0.314,0.082 -0.448,0.124 -0.135,0.041 -0.283,0.082 -0.448,0.124 -0.474,0.165 -0.927,0.334 -1.361,0.509 -0.432,0.176 -0.834,0.377 -1.205,0.604 -0.474,0.308 -0.908,0.67 -1.298,1.082 -0.393,0.412 -0.702,0.886 -0.928,1.422 -0.082,0.185 -0.145,0.376 -0.186,0.572 -0.041,0.195 -0.092,0.406 -0.154,0.634 -0.042,0.185 -0.072,0.453 -0.093,0.803 -0.02,0.351 -0.011,0.639 0.03,0.866 0.021,0.082 0.032,0.207 0.032,0.371 0.062,0.226 0.113,0.443 0.154,0.65 0.041,0.205 0.104,0.412 0.186,0.617 0.309,0.722 0.706,1.334 1.19,1.84 0.484,0.505 1.046,0.963 1.685,1.376 0.412,0.247 0.855,0.443 1.33,0.587 0.473,0.145 0.978,0.279 1.514,0.402 0.206,0.041 0.408,0.067 0.603,0.078 0.196,0.01 0.396,0.036 0.603,0.077 0.062,0.02 0.16,0.02 0.293,0 0.135,-0.021 0.222,-0.01 0.264,0.031" /><path
         inkscape:connector-curvature="0"
         id="path288"
         style="fill:#ffffff;fill-opacity:1;fill-rule:nonzero;stroke:none"
         d="m 332.49913,301.92336 11.563,0 2.691,0 c 0.246,0 0.483,-0.011 0.711,-0.03 0.226,-0.022 0.39,-0.104 0.494,-0.248 0.041,-0.062 0.066,-0.135 0.077,-0.217 0.011,-0.082 0.036,-0.164 0.077,-0.246 l 0,-0.341 c 0.021,-0.145 0.026,-0.299 0.016,-0.464 -0.01,-0.165 -0.016,-0.32 -0.016,-0.463 0,-0.166 0.006,-0.325 0.016,-0.48 0.01,-0.155 0.005,-0.304 -0.016,-0.448 -0.02,-0.103 -0.031,-0.257 -0.031,-0.464 -0.061,-0.246 -0.164,-0.412 -0.309,-0.495 -0.123,-0.082 -0.278,-0.123 -0.463,-0.123 l -0.587,0 -2.133,0 -5.597,0 c -0.165,0 -0.355,0.004 -0.571,0.016 -0.217,0.01 -0.434,0.01 -0.651,0 -0.215,-0.012 -0.417,-0.031 -0.602,-0.062 -0.186,-0.032 -0.319,-0.078 -0.401,-0.139 -0.145,-0.104 -0.233,-0.253 -0.264,-0.449 -0.03,-0.196 -0.046,-0.417 -0.046,-0.664 l 0,-1.762 0,-0.898 c 0.041,-0.165 0.082,-0.303 0.124,-0.417 0.041,-0.113 0.113,-0.201 0.217,-0.263 0.123,-0.082 0.267,-0.129 0.431,-0.139 0.166,-0.01 0.341,-0.016 0.526,-0.016 l 1.67,0 5.318,0 c 0.144,0 0.324,0.006 0.541,0.016 0.216,0.01 0.428,0.01 0.633,0 0.207,-0.01 0.396,-0.025 0.572,-0.047 0.176,-0.019 0.305,-0.06 0.387,-0.123 0.103,-0.061 0.175,-0.185 0.217,-0.371 0.041,-0.185 0.066,-0.387 0.077,-0.602 0.01,-0.216 0.01,-0.439 0,-0.665 -0.011,-0.227 -0.016,-0.422 -0.016,-0.588 l 0,-0.432 c 0,-0.145 -0.02,-0.269 -0.061,-0.371 -0.042,-0.166 -0.124,-0.299 -0.248,-0.402 -0.104,-0.063 -0.242,-0.104 -0.417,-0.124 -0.175,-0.021 -0.371,-0.031 -0.587,-0.031 -0.217,0 -0.434,0.004 -0.651,0.016 -0.215,0.01 -0.396,0.015 -0.541,0.015 l -6.028,0 c -0.247,0 -0.484,0.004 -0.711,0.015 -0.227,0.011 -0.438,0 -0.634,-0.03 -0.196,-0.031 -0.361,-0.094 -0.494,-0.186 -0.135,-0.093 -0.232,-0.232 -0.295,-0.418 -0.019,-0.103 -0.03,-0.211 -0.03,-0.324 l 0,-0.324 0,-1.176 0,-1.73 c 0,-0.248 0.016,-0.47 0.046,-0.665 0.031,-0.197 0.119,-0.346 0.264,-0.449 0.061,-0.062 0.138,-0.097 0.231,-0.108 0.093,-0.011 0.19,-0.036 0.294,-0.077 l 0.309,0 c 0.103,-0.022 0.216,-0.027 0.339,-0.016 0.125,0.01 0.238,0.016 0.341,0.016 l 1.298,0 5.813,0 1.638,0 0.48,0 c 0.155,0 0.294,-0.031 0.417,-0.093 0.165,-0.061 0.279,-0.176 0.34,-0.341 0.041,-0.103 0.067,-0.226 0.078,-0.371 0.009,-0.143 0.015,-0.299 0.015,-0.463 l 0,-1.422 c 0,-0.248 -0.011,-0.479 -0.031,-0.696 -0.021,-0.216 -0.113,-0.376 -0.278,-0.479 -0.124,-0.104 -0.284,-0.155 -0.48,-0.155 l -0.633,0 -2.319,0 -9.151,0 -2.443,0 c -0.289,0 -0.541,0.016 -0.756,0.047 -0.217,0.031 -0.377,0.128 -0.481,0.293 -0.082,0.124 -0.123,0.283 -0.123,0.48 l 0,0.572 0,2.225 0,8.411 0,6.739 0,1.917 0,0.557 c 0,0.185 0.041,0.329 0.123,0.432 0.082,0.144 0.237,0.247 0.465,0.31 0.041,0.019 0.082,0.025 0.123,0.015 0.041,-0.011 0.082,-0.006 0.123,0.015" /></g><g
       id="g5670"
       transform="matrix(7.0334212,0,0,7.0334212,-1460.9216,-1449.2039)"><path
         inkscape:connector-curvature="0"
         id="path316"
         style="fill:#ffffff;fill-opacity:1;fill-rule:nonzero;stroke:none"
         d="m 327.05708,267.80053 c -0.697,0 -1.315,-0.27 -1.854,-0.809 -0.539,-0.539 -0.808,-1.159 -0.808,-1.859 0,-0.702 0.232,-1.315 0.696,-1.842 l 3.826,3.8 c -0.544,0.474 -1.164,0.71 -1.86,0.71 m 0.138,-5.837 -0.118,0 c -0.833,0 -1.559,0.314 -2.176,0.941 -0.618,0.625 -0.927,1.355 -0.927,2.188 0,0.833 0.307,1.554 0.92,2.163 0.614,0.608 1.371,0.913 2.274,0.913 0.903,0 1.679,-0.359 2.327,-1.078 l -4.127,-4.075 c 0.569,-0.456 1.117,-0.684 1.643,-0.684 0.525,0 0.997,0.12 1.413,0.362 0.416,0.241 0.76,0.562 1.032,0.966 l 0,-0.671 c -0.623,-0.683 -1.376,-1.025 -2.261,-1.025" /><path
         inkscape:connector-curvature="0"
         id="path332"
         style="fill:#ffffff;fill-opacity:1;fill-rule:nonzero;stroke:none"
         d="m 332.96864,267.89306 c -0.465,0 -0.875,-0.176 -1.23,-0.526 -0.355,-0.351 -0.532,-0.759 -0.532,-1.223 l 0,-3.944 -0.422,0 0,5.916 0.422,0 0,-0.881 c 0.158,0.299 0.403,0.543 0.737,0.736 0.332,0.193 0.705,0.289 1.117,0.289 0.412,0 0.805,-0.14 1.182,-0.42 l 0,-0.526 c -0.385,0.386 -0.81,0.579 -1.274,0.579" /><path
         inkscape:connector-curvature="0"
         id="path336"
         style="fill:#ffffff;fill-opacity:1;fill-rule:nonzero;stroke:none"
         d="m 302.24333,262.44966 0,-0.367 c -0.621,0 -1.152,0.207 -1.59,0.624 -0.438,0.416 -0.658,0.948 -0.658,1.597 l 0,7.756 0.422,0 0,-7.756 c 0,-0.535 0.177,-0.977 0.531,-1.329 0.356,-0.349 0.787,-0.525 1.295,-0.525" /><path
         inkscape:connector-curvature="0"
         id="path340"
         style="fill:#ffffff;fill-opacity:1;fill-rule:nonzero;stroke:none"
         d="m 308.27843,265.15086 c 0,0.741 -0.266,1.383 -0.795,1.927 -0.531,0.543 -1.164,0.815 -1.9,0.815 -0.737,0 -1.373,-0.274 -1.912,-0.822 -0.539,-0.548 -0.809,-1.19 -0.809,-1.926 0,-0.736 0.27,-1.374 0.809,-1.912 0.539,-0.539 1.177,-0.809 1.919,-0.809 0.74,0 1.374,0.27 1.899,0.809 0.525,0.538 0.789,1.178 0.789,1.918 m -4.93,-2.155 c -0.605,0.626 -0.908,1.356 -0.908,2.188 0,0.833 0.307,1.554 0.921,2.163 0.613,0.609 1.352,0.913 2.216,0.913 0.862,0 1.598,-0.304 2.208,-0.913 0.608,-0.609 0.913,-1.333 0.913,-2.169 0,-0.838 -0.297,-1.566 -0.894,-2.189 -0.596,-0.622 -1.319,-0.934 -2.169,-0.934 l -0.119,0 c -0.841,0 -1.563,0.314 -2.168,0.941" /><path
         inkscape:connector-curvature="0"
         id="path344"
         style="fill:#ffffff;fill-opacity:1;fill-rule:nonzero;stroke:none"
         d="m 310.04013,265.14496 c 0,-0.745 0.27,-1.387 0.809,-1.926 0.539,-0.539 1.177,-0.808 1.919,-0.808 0.74,0 1.374,0.269 1.899,0.808 0.525,0.539 0.789,1.181 0.789,1.926 0,0.744 -0.264,1.387 -0.789,1.926 -0.525,0.539 -1.159,0.808 -1.899,0.808 -0.742,0 -1.38,-0.269 -1.919,-0.808 -0.539,-0.539 -0.809,-1.182 -0.809,-1.926 m 5.402,2.971 0.421,0 0,-5.364 c 0,-1.016 -0.28,-1.818 -0.841,-2.406 -0.561,-0.587 -1.297,-0.881 -2.209,-0.881 -0.5,0 -0.986,0.115 -1.459,0.342 -0.473,0.229 -0.841,0.526 -1.104,0.895 l 0,0.604 c 0.228,-0.421 0.585,-0.77 1.071,-1.052 0.487,-0.28 0.985,-0.42 1.492,-0.42 0.772,0 1.403,0.26 1.893,0.782 0.491,0.521 0.736,1.234 0.736,2.136 l 0,0.881 c -0.236,-0.482 -0.609,-0.867 -1.117,-1.157 -0.508,-0.289 -1.034,-0.434 -1.578,-0.434 -0.858,0 -1.595,0.304 -2.208,0.914 -0.614,0.609 -0.921,1.339 -0.921,2.189 0,0.85 0.307,1.58 0.921,2.189 0.613,0.609 1.35,0.914 2.208,0.914 0.57,0 1.103,-0.143 1.598,-0.427 0.495,-0.285 0.861,-0.678 1.097,-1.178 l 0,1.473 z" /><path
         inkscape:connector-curvature="0"
         id="path344-6"
         style="fill:#ffffff;fill-opacity:1;fill-rule:nonzero;stroke:none"
         d="m 317.18197,265.12449 c 0,-0.745 0.27,-1.387 0.809,-1.926 0.539,-0.539 1.177,-0.808 1.919,-0.808 0.74,0 1.374,0.269 1.899,0.808 0.525,0.539 0.789,1.181 0.789,1.926 0,0.744 -0.264,1.387 -0.789,1.926 -0.525,0.539 -1.159,0.808 -1.899,0.808 -0.742,0 -1.38,-0.269 -1.919,-0.808 -0.539,-0.539 -0.809,-1.182 -0.809,-1.926 m 5.402,2.971 0.421,0 0,-5.364 c 0,-1.016 -0.28,-1.818 -0.841,-2.406 -0.561,-0.587 -1.297,-0.881 -2.209,-0.881 -0.5,0 -0.986,0.115 -1.459,0.342 -0.473,0.229 -0.841,0.526 -1.104,0.895 l 0,0.604 c 0.228,-0.421 0.585,-0.77 1.071,-1.052 0.487,-0.28 0.985,-0.42 1.492,-0.42 0.772,0 1.403,0.26 1.893,0.782 0.491,0.521 0.736,1.234 0.736,2.136 l 0,0.881 c -0.236,-0.482 -0.609,-0.867 -1.117,-1.157 -0.508,-0.289 -1.034,-0.434 -1.578,-0.434 -0.858,0 -1.595,0.304 -2.208,0.914 -0.614,0.609 -0.921,1.339 -0.921,2.189 0,0.85 0.307,1.58 0.921,2.189 0.613,0.609 1.35,0.914 2.208,0.914 0.57,0 1.103,-0.143 1.598,-0.427 0.495,-0.285 0.861,-0.678 1.097,-1.178 l 0,1.473 z" /></g></g></svg>