<?xml version="1.0" encoding="UTF-8" standalone="no"?>
<!-- Created with Inkscape (http://www.inkscape.org/) -->

<svg
   xmlns:dc="http://purl.org/dc/elements/1.1/"
   xmlns:cc="http://creativecommons.org/ns#"
   xmlns:rdf="http://www.w3.org/1999/02/22-rdf-syntax-ns#"
   xmlns:svg="http://www.w3.org/2000/svg"
   xmlns="http://www.w3.org/2000/svg"
   xmlns:sodipodi="http://sodipodi.sourceforge.net/DTD/sodipodi-0.dtd"
   xmlns:inkscape="http://www.inkscape.org/namespaces/inkscape"
   id="svg2"
   version="1.1"
   inkscape:version="0.48.4 r9939"
   xml:space="preserve"
   width="52.287106"
   height="52.287106"
   viewBox="0 0 52.287106 52.287103"
   sodipodi:docname="ezlogger-logo.svg"><metadata
     id="metadata8"><rdf:RDF><cc:Work
         rdf:about=""><dc:format>image/svg+xml</dc:format><dc:type
           rdf:resource="http://purl.org/dc/dcmitype/StillImage" /><dc:title /><dc:title /></cc:Work></rdf:RDF></metadata><defs
     id="defs6"><clipPath
       clipPathUnits="userSpaceOnUse"
       id="clipPath18"><path
         d="m 0,841.89 595.28,0 L 595.28,0 0,0 0,841.89 Z"
         id="path20"
         inkscape:connector-curvature="0" /></clipPath></defs><sodipodi:namedview
     pagecolor="#ffffff"
     bordercolor="#666666"
     borderopacity="1"
     objecttolerance="10"
     gridtolerance="10"
     guidetolerance="10"
     inkscape:pageopacity="0"
     inkscape:pageshadow="2"
     inkscape:window-width="1280"
     inkscape:window-height="968"
     id="namedview4"
     showgrid="false"
     fit-margin-top="0"
     fit-margin-left="0"
     fit-margin-right="0"
     fit-margin-bottom="0"
     inkscape:zoom="5.0743638"
     inkscape:cx="25.722944"
     inkscape:cy="2.0301992"
     inkscape:window-x="0"
     inkscape:window-y="27"
     inkscape:window-maximized="1"
     inkscape:current-layer="g10" /><g
     id="g10"
     inkscape:groupmode="layer"
     inkscape:label="ezpaarse-logo2014"
     transform="matrix(1.25,0,0,-1.25,-219.71523,608.65025)"><g
       id="g14"
       transform="translate(3.1531047,26.486079)"
       style="stroke:none;stroke-opacity:1"><g
         id="g16"
         clip-path="url(#clipPath18)"
         style="stroke:none;stroke-opacity:1" /></g><rect
       style="fill:#1d1d1d;fill-opacity:1;fill-rule:evenodd;stroke:none;stroke-width:0.80000001px;stroke-linecap:butt;stroke-linejoin:miter;stroke-opacity:1"
       id="rect4280"
       width="41.829685"
       height="41.829685"
       x="175.77219"
       y="-486.9202"
       ry="5.6484823"
       transform="scale(1,-1)" /><path
       d="m 188.93119,475.20077 c -2.458,0 -4.638,-0.951 -6.539,-2.853 -1.901,-1.901 -2.852,-4.088 -2.852,-6.562 0,-2.474 0.819,-4.638 2.458,-6.492 l 13.495,13.402 c -1.917,1.669 -4.104,2.505 -6.562,2.505 m 0.487,-20.592 -0.418,0 c -2.937,0 -5.495,1.106 -7.674,3.317 -2.18,2.21 -3.27,4.783 -3.27,7.721 0,2.937 1.082,5.48 3.246,7.628 2.164,2.149 4.838,3.224 8.023,3.224 3.184,0 5.92,-1.269 8.209,-3.803 l -14.562,-14.376 c 2.009,-1.608 3.941,-2.412 5.796,-2.412 1.856,0 3.517,0.425 4.986,1.275 1.468,0.85 2.682,1.987 3.64,3.409 l 0,-2.366 c -2.195,-2.41 -4.854,-3.617 -7.976,-3.617"
       style="fill:#ffffff;fill-opacity:1;fill-rule:nonzero;stroke:none;stroke-opacity:1"
       id="path260"
       inkscape:connector-curvature="0" /><path
       d="m 214.69239,456.46446 0,-1.299 -14.376,0 11.872,19.57 -10.62,0 0,1.299 13.263,0 -11.918,-19.57 11.779,0 z"
       style="fill:#ffffff;fill-opacity:1;fill-rule:nonzero;stroke:none;stroke-opacity:1"
       id="path264"
       inkscape:connector-curvature="0" /></g></svg>